<svg id="svg" version="1.1" xmlns="http://www.w3.org/2000/svg" xmlns:xlink="http://www.w3.org/1999/xlink" width="400" height="400" viewBox="0, 0, 400,400"><g id="svgg"><path id="path0" d="M26.300 183.632 C 25.650 184.011,25.600 185.315,25.600 201.968 L 25.600 219.895 27.100 220.143 C 32.281 221.000,32.000 221.832,32.000 205.596 C 32.000 190.371,31.965 190.594,34.454 190.033 C 36.671 189.533,56.909 189.491,58.735 189.982 C 60.846 190.551,60.787 190.103,60.801 205.800 C 60.814 221.444,60.585 220.478,64.236 220.320 L 67.000 220.200 67.104 203.732 L 67.209 187.264 66.104 185.476 C 65.134 183.906,64.787 183.659,63.244 183.444 C 60.185 183.019,27.065 183.187,26.300 183.632 M72.105 183.489 C 69.576 183.803,69.599 183.636,69.613 201.789 C 69.627 219.986,69.540 219.392,72.270 220.026 C 74.027 220.434,106.057 220.529,111.498 220.143 C 114.687 219.917,115.241 219.762,116.153 218.843 C 120.321 214.645,122.400 212.372,122.400 212.016 C 122.400 211.787,122.558 211.600,122.751 211.600 C 122.945 211.600,123.889 210.565,124.850 209.300 C 127.524 205.782,127.619 205.788,131.200 209.730 C 132.410 211.061,134.300 213.073,135.400 214.199 C 136.500 215.326,138.140 217.091,139.045 218.124 L 140.691 220.000 143.879 220.000 C 147.616 220.000,147.935 219.817,146.612 218.433 C 145.288 217.050,143.697 215.226,142.000 213.147 C 140.398 211.185,137.337 207.833,135.000 205.482 C 131.522 201.983,131.542 201.727,135.637 197.400 C 136.886 196.080,138.514 194.280,139.254 193.400 C 139.994 192.520,140.793 191.620,141.028 191.400 C 141.263 191.180,142.603 189.611,144.004 187.913 C 145.406 186.216,146.800 184.732,147.102 184.616 C 148.460 184.095,146.869 183.600,143.836 183.600 L 140.520 183.600 138.760 185.624 C 137.792 186.738,135.676 189.033,134.057 190.724 C 132.438 192.416,130.662 194.385,130.109 195.100 C 129.121 196.379,126.400 197.044,126.400 196.007 C 126.400 195.791,125.905 195.060,125.300 194.383 C 124.229 193.184,117.641 186.244,115.974 184.559 C 114.802 183.374,79.884 182.522,72.105 183.489 M112.913 189.357 C 113.621 190.103,115.730 192.377,117.600 194.410 C 119.470 196.442,121.495 198.628,122.100 199.267 C 124.166 201.447,123.695 202.607,118.554 208.000 C 117.191 209.430,115.092 211.635,113.890 212.900 C 111.532 215.380,110.869 215.642,110.093 214.400 C 109.606 213.621,109.160 213.600,93.246 213.600 C 74.319 213.600,75.862 213.983,75.690 209.239 C 75.511 204.299,74.535 204.636,89.717 204.400 L 102.600 204.200 102.729 202.618 C 102.800 201.747,102.747 200.442,102.611 199.718 L 102.364 198.400 89.605 198.400 C 74.867 198.400,75.595 198.608,75.605 194.411 C 75.618 189.389,74.981 189.551,94.443 189.619 C 109.470 189.672,109.682 189.661,110.260 188.836 C 111.053 187.704,111.413 187.775,112.913 189.357 " stroke="none" fill="#080808" fill-rule="evenodd"></path><path id="path1" d="M0.000 200.000 L 0.000 400.000 200.000 400.000 L 400.000 400.000 400.000 200.000 L 400.000 0.000 200.000 0.000 L 0.000 0.000 0.000 200.000 M47.391 161.500 C 47.543 161.885,47.747 163.866,47.844 165.902 C 48.020 169.578,48.741 172.579,49.092 171.100 C 49.184 170.715,49.390 170.400,49.551 170.400 C 49.712 170.400,50.523 169.778,51.354 169.017 C 54.839 165.825,55.767 166.721,55.372 172.900 C 55.042 178.065,54.925 178.008,59.489 174.900 C 65.780 170.616,66.913 170.185,67.106 172.000 C 67.219 173.061,62.042 178.910,60.046 179.976 C 58.826 180.628,59.561 181.185,61.651 181.194 C 62.449 181.197,63.326 181.470,63.600 181.800 C 63.874 182.130,64.340 182.400,64.635 182.400 C 64.931 182.400,65.725 182.940,66.400 183.600 C 67.896 185.062,68.633 185.120,68.964 183.800 C 69.102 183.250,69.437 182.799,69.708 182.798 C 69.978 182.796,70.734 182.516,71.387 182.176 C 72.799 181.440,110.085 181.280,110.333 182.009 C 110.407 182.224,111.419 182.400,112.583 182.400 C 115.532 182.400,117.138 182.783,117.400 183.548 C 117.587 184.096,121.456 188.447,124.394 191.414 C 124.837 191.862,125.200 192.447,125.200 192.714 C 125.200 192.981,125.487 193.200,125.837 193.200 C 126.188 193.200,126.569 193.560,126.684 194.000 C 127.183 195.908,128.373 195.115,133.000 189.791 C 134.100 188.525,135.765 186.682,136.700 185.695 C 137.635 184.708,138.400 183.738,138.400 183.540 C 138.400 182.163,147.865 181.865,149.200 183.200 C 149.640 183.640,150.001 184.225,150.001 184.500 C 150.002 184.775,150.347 184.436,150.768 183.746 C 152.415 181.044,161.791 180.462,193.200 181.109 C 194.410 181.134,203.320 181.120,213.000 181.077 L 230.600 181.000 232.352 181.921 L 234.104 182.842 235.085 181.921 C 235.941 181.118,236.477 181.000,239.269 181.000 C 244.286 181.000,243.999 180.046,244.006 196.744 C 244.010 204.767,244.172 210.853,244.391 211.200 C 244.858 211.939,268.687 212.327,270.532 211.626 L 271.600 211.220 271.600 199.116 L 271.600 187.011 272.643 184.949 C 273.494 183.268,274.076 182.690,275.791 181.823 L 277.894 180.758 294.247 180.879 C 310.356 180.998,310.624 181.013,312.194 181.900 C 314.202 183.033,315.100 183.033,316.307 181.900 L 317.265 181.000 335.567 181.000 L 353.869 181.000 355.434 182.091 C 356.296 182.690,357.540 183.860,358.200 184.691 L 359.400 186.200 359.534 194.699 C 359.658 202.503,359.611 203.221,358.967 203.468 C 357.008 204.220,354.389 207.372,354.902 208.361 C 356.670 211.771,359.227 209.652,360.167 203.995 C 360.544 201.727,365.882 196.199,369.081 194.764 C 370.467 194.142,371.600 193.436,371.600 193.195 C 371.600 192.391,373.790 190.000,374.526 190.000 C 375.610 190.000,376.753 190.718,378.088 192.239 C 379.516 193.866,379.478 193.862,382.237 192.600 C 384.784 191.435,389.258 191.215,390.547 192.191 C 392.702 193.824,391.653 197.759,388.743 198.957 C 383.024 201.309,381.785 202.697,383.765 204.532 L 384.780 205.473 387.136 204.306 C 393.802 201.002,399.102 204.055,395.340 209.033 C 394.409 210.264,390.745 212.400,389.564 212.400 C 388.401 212.400,387.074 214.217,387.566 215.136 C 389.258 218.298,386.106 221.379,383.033 219.566 L 381.620 218.733 380.710 219.740 C 377.758 223.010,368.364 222.543,364.514 218.936 C 362.144 216.716,359.848 216.720,359.380 218.946 C 358.832 221.547,357.453 222.402,353.825 222.387 C 349.316 222.370,347.943 220.865,346.353 214.200 C 346.144 213.320,345.727 212.060,345.428 211.400 C 345.129 210.740,344.764 209.627,344.616 208.928 C 344.169 206.805,344.023 206.776,334.350 206.892 L 325.400 207.000 325.290 213.467 L 325.180 219.934 323.822 221.127 L 322.463 222.320 315.434 222.326 L 308.405 222.332 307.602 221.312 C 306.882 220.397,306.800 219.692,306.800 214.435 C 306.800 206.039,308.045 206.800,294.309 206.800 C 280.300 206.800,281.600 206.022,281.600 214.400 C 281.600 220.193,281.538 220.732,280.790 221.409 C 279.403 222.664,242.016 222.847,238.600 221.615 C 234.529 220.147,233.155 220.190,231.195 221.842 C 230.209 222.673,196.724 222.315,194.734 221.453 C 192.431 220.455,189.423 220.668,188.673 221.883 C 188.369 222.373,151.682 222.166,151.085 221.670 C 150.817 221.448,148.130 221.206,145.114 221.133 L 139.631 221.000 138.115 219.359 C 133.191 214.026,130.800 211.215,130.800 210.759 C 130.800 210.561,130.542 210.400,130.227 210.400 C 129.912 210.400,129.543 210.049,129.406 209.620 C 128.880 207.961,125.200 209.265,125.200 211.111 C 125.200 211.235,124.390 212.113,123.400 213.062 C 122.410 214.010,121.600 214.897,121.600 215.033 C 121.600 215.168,121.105 215.769,120.500 216.369 C 119.895 216.968,118.738 218.238,117.929 219.192 L 116.459 220.925 112.929 221.234 C 107.781 221.685,75.017 221.663,72.200 221.207 C 70.564 220.942,69.577 220.547,69.100 219.965 C 68.611 219.369,68.400 219.287,68.400 219.694 C 68.400 221.146,66.974 221.693,63.585 221.539 C 58.894 221.326,59.200 222.387,59.200 206.342 C 59.200 196.946,59.059 192.528,58.736 191.819 L 58.272 190.800 46.336 190.800 L 34.400 190.800 34.419 192.700 L 34.438 194.600 35.123 193.200 L 35.807 191.800 42.558 191.690 C 51.527 191.544,52.815 192.447,49.032 196.232 C 48.574 196.690,46.140 199.210,43.622 201.832 C 36.904 208.828,35.801 209.425,34.978 206.511 C 34.462 204.683,34.064 208.102,34.030 214.651 C 33.994 221.424,34.095 221.275,29.358 221.524 C 25.023 221.752,24.400 221.314,24.400 218.042 L 24.400 215.808 23.480 216.804 C 22.973 217.352,22.221 218.375,21.807 219.077 C 20.928 220.569,17.348 222.308,16.631 221.591 C 16.332 221.292,16.335 221.083,16.643 220.883 C 16.883 220.728,17.202 219.528,17.353 218.217 C 17.536 216.626,17.888 215.592,18.413 215.102 C 19.592 214.004,19.331 212.910,18.057 213.605 C 10.515 217.718,7.532 215.944,12.259 210.159 C 12.997 209.256,13.600 208.354,13.600 208.155 C 13.600 207.956,13.960 207.568,14.400 207.293 C 14.840 207.018,15.200 206.537,15.200 206.223 C 15.200 205.908,15.693 205.579,16.300 205.487 C 16.905 205.395,15.493 205.293,13.162 205.260 C 7.786 205.184,6.792 204.535,8.541 202.242 C 9.194 201.386,10.084 200.760,10.895 200.587 C 14.291 199.860,13.802 197.447,9.931 195.829 C 6.507 194.399,6.130 191.838,9.292 191.498 C 10.231 191.397,11.576 191.073,12.280 190.777 C 13.404 190.305,13.651 190.322,14.311 190.920 C 15.357 191.866,15.600 191.777,15.600 190.443 C 15.600 189.534,15.380 189.231,14.571 189.028 C 13.269 188.702,7.528 182.871,7.688 182.038 C 8.058 180.119,13.651 181.075,17.232 183.669 C 18.109 184.305,18.869 184.611,19.008 184.386 C 19.392 183.765,18.820 182.439,17.973 181.986 C 17.548 181.758,17.200 181.308,17.200 180.986 C 17.200 180.664,17.021 180.400,16.803 180.400 C 16.414 180.400,15.742 179.286,14.251 176.167 C 13.839 175.305,13.341 174.282,13.143 173.893 C 12.820 173.256,13.933 172.400,15.086 172.400 C 15.625 172.400,19.604 174.522,20.032 175.039 C 20.288 175.347,20.732 175.600,21.018 175.600 C 21.304 175.600,22.092 176.153,22.768 176.830 C 24.062 178.123,25.650 177.755,24.770 176.365 C 24.573 176.054,24.409 175.418,24.406 174.951 C 24.403 174.484,24.053 173.314,23.628 172.351 C 23.203 171.388,22.690 169.430,22.487 168.000 C 22.283 166.570,22.046 165.130,21.959 164.800 C 21.542 163.224,24.176 163.906,25.812 165.798 C 26.685 166.808,28.073 168.382,28.895 169.295 C 29.717 170.209,30.591 171.568,30.838 172.315 C 31.085 173.062,31.421 173.522,31.585 173.337 C 31.955 172.921,33.021 169.489,33.368 167.600 C 34.149 163.350,37.982 165.396,37.998 170.071 C 38.000 170.893,39.051 172.000,39.829 172.000 C 40.143 172.000,40.400 171.685,40.400 171.300 C 40.400 170.915,41.300 168.800,42.400 166.600 C 43.500 164.400,44.400 162.411,44.400 162.180 C 44.400 160.852,46.910 160.282,47.391 161.500 M147.457 186.281 C 144.644 189.336,142.449 191.765,141.000 193.424 C 140.120 194.433,138.795 195.920,138.056 196.729 C 137.317 197.538,136.028 199.016,135.192 200.012 L 133.672 201.825 135.440 203.812 C 136.412 204.906,138.106 206.736,139.204 207.879 C 140.302 209.023,141.200 210.058,141.200 210.180 C 141.200 210.301,141.920 211.100,142.800 211.954 C 143.680 212.808,144.400 213.617,144.400 213.753 C 144.400 213.889,145.392 215.000,146.604 216.222 C 148.948 218.584,148.998 218.573,149.342 215.601 C 149.769 211.910,149.331 212.000,166.978 212.000 C 184.639 212.000,184.145 212.095,183.663 208.800 L 183.400 207.000 167.265 206.800 L 151.130 206.600 150.131 205.438 L 149.133 204.277 149.246 194.865 C 149.367 184.748,149.275 184.307,147.457 186.281 M93.900 190.700 L 77.200 190.809 77.200 193.804 L 77.200 196.800 89.920 196.800 C 104.758 196.800,103.600 196.407,103.600 201.447 C 103.600 206.956,105.108 206.400,90.157 206.400 L 77.200 206.400 77.200 209.592 L 77.200 212.783 94.300 212.892 C 112.482 213.007,113.200 212.981,113.200 212.212 C 113.200 211.940,113.673 211.196,114.252 210.558 C 114.830 209.921,116.495 208.075,117.952 206.455 C 119.408 204.835,120.986 203.122,121.458 202.648 L 122.315 201.787 120.458 199.642 C 119.436 198.462,117.835 196.699,116.900 195.725 C 115.965 194.750,115.200 193.804,115.200 193.622 C 115.200 193.441,114.750 192.997,114.200 192.637 C 113.650 192.276,113.200 191.737,113.200 191.437 C 113.200 190.910,111.811 190.318,111.000 190.501 C 110.780 190.550,103.085 190.640,93.900 190.700 M163.667 191.613 C 163.154 191.825,162.316 191.894,161.804 191.765 C 160.205 191.364,159.200 192.221,159.200 193.986 C 159.200 196.865,158.624 196.769,175.777 196.751 L 191.130 196.735 191.365 195.795 C 191.697 194.476,191.028 192.968,189.736 192.121 C 188.475 191.294,165.524 190.847,163.667 191.613 M201.454 192.428 C 201.053 194.435,201.170 210.533,201.591 211.200 C 201.911 211.706,203.782 211.818,213.564 211.917 L 225.157 212.034 225.403 210.717 C 225.758 208.815,225.463 192.127,225.067 191.732 C 224.884 191.550,219.554 191.345,213.222 191.278 L 201.709 191.156 201.454 192.428 M282.551 192.531 C 281.386 193.916,281.351 194.782,282.416 195.925 C 283.386 196.967,304.911 197.329,305.920 196.320 C 306.545 195.695,306.511 193.650,305.855 192.468 L 305.338 191.537 294.420 191.468 L 283.502 191.400 282.551 192.531 M325.891 191.900 C 325.030 192.851,324.987 195.325,325.819 196.016 C 326.919 196.929,346.258 197.095,348.128 196.208 C 350.103 195.270,350.221 193.410,348.391 192.057 C 347.727 191.565,347.033 191.256,346.849 191.369 C 346.366 191.668,329.224 191.684,327.791 191.387 C 326.888 191.200,326.406 191.330,325.891 191.900 M14.289 197.205 C 13.395 198.249,13.415 199.073,14.347 199.572 C 15.342 200.104,15.600 199.767,15.600 197.933 C 15.600 196.207,15.291 196.035,14.289 197.205 " stroke="none" fill="#fbfbfb" fill-rule="evenodd"></path><path id="path2" d="M44.087 167.193 C 42.284 170.771,42.386 172.400,44.412 172.400 C 45.872 172.400,46.583 170.507,46.171 167.714 C 45.687 164.429,45.503 164.383,44.087 167.193 M24.415 169.300 C 24.597 170.015,24.837 170.960,24.949 171.400 C 25.061 171.840,25.256 172.695,25.384 173.300 C 25.635 174.493,26.614 174.742,28.046 173.976 C 29.013 173.458,28.816 172.594,27.115 169.900 C 25.600 167.498,23.858 167.111,24.415 169.300 M34.400 170.228 C 34.400 171.895,34.479 172.044,35.300 171.928 C 36.457 171.764,36.686 170.343,35.735 169.232 C 34.676 167.996,34.400 168.202,34.400 170.228 M51.035 171.396 C 49.762 172.373,49.917 175.191,51.286 175.970 C 52.823 176.845,53.378 176.137,53.390 173.290 C 53.401 170.772,52.642 170.162,51.035 171.396 M32.200 175.534 C 27.981 176.954,26.822 177.619,24.525 179.938 C 23.466 181.006,22.410 181.952,22.178 182.040 C 21.367 182.347,18.491 188.622,17.889 191.400 C 16.960 195.682,17.480 202.831,18.847 204.569 C 19.261 205.095,19.600 205.743,19.600 206.007 C 19.600 206.936,22.143 210.401,22.867 210.460 C 23.270 210.493,23.825 210.538,24.100 210.560 C 24.488 210.591,24.645 207.510,24.800 196.867 C 24.989 183.860,25.041 183.105,25.776 182.567 C 26.406 182.107,29.012 181.992,39.576 181.960 C 46.739 181.938,53.022 181.802,53.537 181.657 C 55.128 181.210,50.064 176.767,47.209 176.104 C 46.034 175.832,44.772 175.337,44.405 175.004 C 43.206 173.920,36.076 174.229,32.200 175.534 M16.400 176.107 C 16.400 176.812,17.484 178.870,18.624 180.329 C 18.920 180.708,21.199 179.076,21.194 178.490 C 21.184 177.373,20.696 176.898,18.659 176.025 C 16.294 175.012,16.400 175.008,16.400 176.107 M59.900 176.676 C 59.515 176.776,59.200 177.093,59.200 177.379 C 59.200 177.666,58.645 178.011,57.966 178.147 C 57.223 178.295,56.798 178.594,56.899 178.897 C 57.214 179.842,58.295 179.640,59.447 178.419 C 60.080 177.749,60.823 177.200,61.099 177.200 C 61.374 177.200,61.600 177.020,61.600 176.800 C 61.600 176.389,61.128 176.355,59.900 176.676 M153.879 183.471 C 151.265 184.270,151.200 184.549,151.200 194.977 C 151.200 202.786,151.283 203.971,151.861 204.451 C 152.386 204.888,155.731 205.041,168.241 205.200 C 185.813 205.424,184.792 205.226,185.213 208.490 C 185.874 213.615,185.925 213.600,167.369 213.600 C 150.220 213.600,151.200 213.383,151.200 217.180 C 151.200 220.645,149.907 220.438,170.723 220.312 L 189.136 220.200 190.094 219.300 C 191.296 218.171,191.577 218.177,194.135 219.387 L 196.221 220.374 211.611 220.400 C 220.075 220.415,227.939 220.421,229.086 220.413 C 230.823 220.402,231.401 220.199,232.539 219.200 C 234.056 217.868,235.615 217.654,236.451 218.662 C 237.839 220.335,238.694 220.400,259.338 220.400 C 282.814 220.400,280.147 221.344,280.342 212.962 C 280.536 204.625,279.087 205.400,294.474 205.400 C 309.501 205.400,308.000 204.531,308.000 213.227 C 308.000 220.726,307.904 220.561,312.081 220.250 C 315.620 219.987,315.478 219.987,319.227 220.248 C 323.283 220.530,323.201 220.674,323.311 213.060 C 323.431 204.684,322.389 205.399,334.463 205.405 L 344.096 205.410 345.148 206.678 C 345.740 207.392,346.696 209.578,347.333 211.673 C 350.075 220.692,349.868 220.402,353.562 220.394 C 356.612 220.387,357.035 220.198,357.418 218.669 C 358.191 215.590,365.200 214.623,365.200 217.596 C 365.200 217.784,365.860 218.156,366.667 218.422 C 367.475 218.689,368.747 219.268,369.496 219.710 C 370.664 220.399,371.283 220.477,373.866 220.258 C 379.872 219.751,381.912 217.712,379.400 214.727 C 378.850 214.073,378.400 213.147,378.401 212.669 C 378.402 211.859,377.772 210.331,375.948 206.721 C 375.536 205.907,375.200 204.896,375.200 204.475 C 375.200 204.053,374.865 203.279,374.455 202.754 C 374.045 202.229,373.571 201.350,373.400 200.800 C 373.229 200.250,372.755 199.371,372.345 198.846 C 371.935 198.321,371.600 197.551,371.600 197.134 C 371.600 192.442,361.961 201.513,361.018 207.091 C 360.366 210.952,355.825 213.352,354.142 210.725 C 352.765 208.577,353.176 204.400,354.763 204.400 C 354.970 204.400,355.692 203.846,356.369 203.169 L 357.600 201.938 357.600 194.183 L 357.600 186.428 356.424 185.088 C 354.535 182.937,353.184 182.795,335.069 182.840 C 316.836 182.885,317.239 182.838,316.440 185.016 C 316.120 185.887,315.827 186.648,315.788 186.708 C 315.750 186.767,314.957 186.119,314.026 185.269 C 311.465 182.928,310.390 182.799,293.469 182.806 C 271.649 182.815,273.600 181.296,273.600 198.271 C 273.600 211.087,273.508 211.956,272.035 213.087 C 271.360 213.606,245.520 213.851,244.218 213.352 C 242.548 212.711,242.400 211.457,242.400 197.909 C 242.400 183.746,242.366 183.533,240.061 183.072 C 238.372 182.734,236.184 183.460,235.432 184.607 C 234.618 185.850,233.796 185.871,233.008 184.668 C 231.928 183.020,229.572 182.800,212.989 182.800 C 200.764 182.800,197.179 182.920,195.378 183.389 C 193.387 183.907,192.981 183.907,191.979 183.389 C 190.305 182.524,156.740 182.596,153.879 183.471 M11.200 183.980 C 11.200 184.189,11.439 184.504,11.730 184.680 C 12.022 184.856,12.369 185.295,12.501 185.656 C 12.708 186.222,15.177 187.786,15.415 187.502 C 16.659 186.019,14.877 183.600,12.542 183.600 C 11.804 183.600,11.200 183.771,11.200 183.980 M191.942 190.586 C 192.313 190.946,192.489 192.207,192.500 194.584 C 192.521 199.112,192.135 199.592,189.108 198.812 C 187.511 198.401,183.899 198.289,174.200 198.350 C 157.682 198.455,158.016 198.550,158.006 193.749 C 158.000 190.822,158.278 190.221,159.767 189.943 C 162.110 189.506,191.434 190.092,191.942 190.586 M226.400 190.800 C 227.658 192.058,227.632 210.943,226.371 212.546 L 225.542 213.600 213.660 213.600 C 200.693 213.600,200.428 213.556,199.539 211.260 C 198.768 209.266,199.551 191.649,200.451 190.749 C 201.647 189.553,225.198 189.598,226.400 190.800 M307.268 190.707 C 308.228 191.668,308.210 196.590,307.243 197.557 C 305.904 198.896,282.096 198.656,280.729 197.289 C 280.016 196.576,280.206 192.156,281.002 190.941 L 281.640 189.968 294.200 190.084 C 303.685 190.172,306.885 190.324,307.268 190.707 M350.156 190.613 C 351.386 191.843,351.469 196.147,350.282 197.132 C 349.129 198.089,344.280 198.461,334.617 198.332 L 324.728 198.200 323.927 197.210 C 323.066 196.146,323.175 191.615,324.088 190.500 C 324.759 189.682,349.331 189.788,350.156 190.613 M10.100 192.655 C 9.230 193.023,9.548 193.432,11.435 194.374 C 13.447 195.380,14.160 195.144,13.934 193.546 C 13.800 192.598,11.501 192.064,10.100 192.655 M373.797 192.805 C 373.259 193.676,373.521 195.566,374.340 196.716 C 374.813 197.380,375.200 198.132,375.200 198.387 C 375.200 198.643,375.650 199.835,376.200 201.037 C 376.750 202.240,377.200 203.320,377.200 203.437 C 377.200 203.555,377.650 204.635,378.200 205.837 C 378.750 207.040,379.200 208.142,379.200 208.286 C 379.200 208.623,380.613 211.775,381.619 213.679 C 382.049 214.493,382.400 215.404,382.400 215.704 C 382.400 216.629,384.674 218.534,385.430 218.244 C 386.002 218.024,386.067 217.633,385.845 215.747 C 385.527 213.041,386.942 211.312,390.229 210.392 C 393.582 209.453,395.558 207.018,394.423 205.223 C 393.826 204.280,390.471 204.554,387.937 205.753 C 383.955 207.636,382.406 207.152,381.067 203.606 L 380.390 201.812 381.499 200.776 C 382.108 200.206,383.505 199.404,384.603 198.993 C 388.018 197.715,389.602 196.540,389.587 195.295 C 389.560 192.974,387.729 192.155,385.346 193.398 C 384.716 193.726,383.927 193.996,383.594 193.998 C 383.261 193.999,382.291 194.373,381.440 194.830 C 379.498 195.870,378.414 195.619,377.031 193.805 C 375.968 192.411,374.349 191.911,373.797 192.805 M36.812 193.588 C 35.950 194.450,35.901 194.942,35.998 201.800 C 36.026 203.780,36.206 205.560,36.399 205.755 C 37.046 206.410,48.649 194.485,48.145 193.684 C 47.429 192.547,37.933 192.467,36.812 193.588 M11.455 202.442 C 10.681 203.548,10.935 204.002,12.324 203.994 C 13.775 203.986,14.508 203.460,14.336 202.552 C 14.120 201.412,12.227 201.340,11.455 202.442 M15.927 208.728 C 14.956 209.120,12.704 212.373,12.953 213.023 C 13.256 213.812,16.758 212.716,17.631 211.558 C 18.209 210.792,18.219 210.560,17.713 209.546 C 17.112 208.341,17.006 208.292,15.927 208.728 M20.935 214.399 C 19.961 214.792,19.456 215.959,19.834 216.944 C 20.309 218.182,21.715 217.092,22.212 215.100 C 22.503 213.936,22.325 213.839,20.935 214.399 " stroke="none" fill="#f3c812" fill-rule="evenodd"></path><path id="path3" d="M44.880 161.280 C 44.616 161.544,44.400 161.949,44.400 162.180 C 44.400 162.411,43.500 164.400,42.400 166.600 C 41.300 168.800,40.400 170.915,40.400 171.300 C 40.400 171.685,40.143 172.000,39.829 172.000 C 39.051 172.000,38.000 170.893,37.998 170.071 C 37.982 165.396,34.149 163.350,33.368 167.600 C 33.021 169.489,31.955 172.921,31.585 173.337 C 31.421 173.522,31.085 173.062,30.838 172.315 C 30.591 171.568,29.717 170.209,28.895 169.295 C 28.073 168.382,26.685 166.808,25.812 165.798 C 24.176 163.906,21.542 163.224,21.959 164.800 C 22.046 165.130,22.283 166.570,22.487 168.000 C 22.690 169.430,23.203 171.388,23.628 172.351 C 24.053 173.314,24.403 174.484,24.406 174.951 C 24.409 175.418,24.573 176.054,24.770 176.365 C 25.650 177.755,24.062 178.123,22.768 176.830 C 22.092 176.153,21.304 175.600,21.018 175.600 C 20.732 175.600,20.288 175.347,20.032 175.039 C 19.604 174.522,15.625 172.400,15.086 172.400 C 13.933 172.400,12.820 173.256,13.143 173.893 C 13.341 174.282,13.839 175.305,14.251 176.167 C 15.742 179.286,16.414 180.400,16.803 180.400 C 17.021 180.400,17.200 180.664,17.200 180.986 C 17.200 181.308,17.548 181.758,17.973 181.986 C 18.820 182.439,19.392 183.765,19.008 184.386 C 18.869 184.611,18.109 184.305,17.232 183.669 C 13.651 181.075,8.058 180.119,7.688 182.038 C 7.528 182.871,13.269 188.702,14.571 189.028 C 15.380 189.231,15.600 189.534,15.600 190.443 C 15.600 191.777,15.357 191.866,14.311 190.920 C 13.651 190.322,13.404 190.305,12.280 190.777 C 11.576 191.073,10.231 191.397,9.292 191.498 C 6.130 191.838,6.507 194.399,9.931 195.829 C 13.802 197.447,14.291 199.860,10.895 200.587 C 10.084 200.760,9.194 201.386,8.541 202.242 C 6.792 204.535,7.786 205.184,13.162 205.260 C 15.493 205.293,16.905 205.395,16.300 205.487 C 15.693 205.579,15.200 205.908,15.200 206.223 C 15.200 206.537,14.840 207.018,14.400 207.293 C 13.960 207.568,13.600 207.956,13.600 208.155 C 13.600 208.354,12.997 209.256,12.259 210.159 C 7.532 215.944,10.515 217.718,18.057 213.605 C 19.331 212.910,19.592 214.004,18.413 215.102 C 17.888 215.592,17.536 216.626,17.353 218.217 C 17.202 219.528,16.883 220.728,16.643 220.883 C 16.335 221.083,16.332 221.292,16.631 221.591 C 17.348 222.308,20.928 220.569,21.807 219.077 C 22.221 218.375,22.973 217.352,23.480 216.804 L 24.400 215.808 24.400 218.042 C 24.400 221.314,25.023 221.752,29.358 221.524 C 34.095 221.275,33.994 221.424,34.030 214.651 C 34.064 208.102,34.462 204.683,34.978 206.511 C 35.801 209.425,36.904 208.828,43.622 201.832 C 46.140 199.210,48.574 196.690,49.032 196.232 C 52.815 192.447,51.527 191.544,42.558 191.690 L 35.807 191.800 35.123 193.200 L 34.438 194.600 34.419 192.676 C 34.407 191.500,34.245 190.849,34.000 191.000 C 33.745 191.157,33.600 196.454,33.600 205.575 C 33.600 222.220,33.972 220.923,29.131 221.143 C 24.977 221.331,24.801 221.166,24.796 217.051 C 24.789 211.976,24.498 210.800,23.184 210.537 C 22.107 210.321,19.600 207.153,19.600 206.007 C 19.600 205.743,19.261 205.095,18.847 204.569 C 17.480 202.831,16.960 195.682,17.889 191.400 C 18.492 188.618,21.370 182.341,22.178 182.045 C 22.410 181.960,23.352 181.115,24.271 180.169 C 28.707 175.597,41.449 172.329,44.405 175.004 C 44.772 175.337,46.034 175.832,47.208 176.104 C 49.284 176.586,49.763 176.920,53.472 180.481 C 54.670 181.632,54.993 181.721,59.072 182.026 C 61.452 182.204,63.850 182.456,64.400 182.586 C 65.307 182.801,65.320 182.787,64.541 182.439 C 64.068 182.229,63.563 181.863,63.417 181.628 C 63.272 181.393,62.488 181.197,61.676 181.194 C 59.564 181.185,58.821 180.631,60.046 179.976 C 62.042 178.910,67.219 173.061,67.106 172.000 C 66.913 170.185,65.780 170.616,59.489 174.900 C 54.925 178.008,55.042 178.065,55.372 172.900 C 55.767 166.721,54.839 165.825,51.354 169.017 C 50.523 169.778,49.712 170.400,49.551 170.400 C 49.390 170.400,49.184 170.715,49.092 171.100 C 48.741 172.579,48.020 169.578,47.844 165.902 C 47.606 160.929,46.678 159.482,44.880 161.280 M46.171 167.714 C 46.583 170.507,45.872 172.400,44.412 172.400 C 42.386 172.400,42.284 170.771,44.087 167.193 C 45.503 164.383,45.687 164.429,46.171 167.714 M27.115 169.900 C 28.816 172.594,29.013 173.458,28.046 173.976 C 26.614 174.742,25.635 174.493,25.384 173.300 C 25.256 172.695,25.061 171.840,24.949 171.400 C 24.837 170.960,24.597 170.015,24.415 169.300 C 23.858 167.111,25.600 167.498,27.115 169.900 M35.735 169.232 C 36.686 170.343,36.457 171.764,35.300 171.928 C 34.479 172.044,34.400 171.895,34.400 170.228 C 34.400 168.202,34.676 167.996,35.735 169.232 M53.390 173.290 C 53.378 176.137,52.823 176.845,51.286 175.970 C 49.157 174.758,50.231 170.620,52.600 170.904 C 53.297 170.988,53.399 171.295,53.390 173.290 M18.659 176.025 C 20.696 176.898,21.184 177.373,21.194 178.490 C 21.199 179.076,18.920 180.708,18.624 180.329 C 17.484 178.870,16.400 176.812,16.400 176.107 C 16.400 175.008,16.294 175.012,18.659 176.025 M61.600 176.800 C 61.600 177.020,61.374 177.200,61.099 177.200 C 60.823 177.200,60.080 177.749,59.447 178.419 C 58.295 179.640,57.214 179.842,56.899 178.897 C 56.798 178.594,57.223 178.295,57.966 178.147 C 58.645 178.011,59.200 177.666,59.200 177.379 C 59.200 176.897,59.888 176.559,61.100 176.446 C 61.375 176.421,61.600 176.580,61.600 176.800 M155.597 181.093 C 152.969 181.790,151.452 182.623,150.768 183.746 C 150.347 184.436,150.002 184.775,150.001 184.500 C 149.997 182.901,148.527 182.398,144.100 182.478 L 139.800 182.557 143.800 182.778 C 149.210 183.078,149.751 183.426,147.781 185.340 C 146.954 186.143,146.445 186.800,146.650 186.800 C 146.855 186.800,147.341 186.428,147.730 185.973 C 149.226 184.226,149.364 185.035,149.246 194.865 L 149.133 204.277 150.131 205.438 L 151.130 206.600 167.265 206.800 L 183.400 207.000 183.663 208.800 C 184.145 212.095,184.639 212.000,166.978 212.000 C 149.331 212.000,149.769 211.910,149.342 215.601 C 148.996 218.595,148.935 218.615,146.835 216.436 C 145.755 215.316,144.751 214.400,144.602 214.400 C 144.316 214.400,146.788 217.160,148.300 218.529 C 150.250 220.295,149.424 220.734,143.800 220.918 C 140.919 221.012,141.243 221.052,145.420 221.118 C 148.554 221.167,150.815 221.375,151.077 221.637 C 151.604 222.164,188.351 222.403,188.673 221.883 C 189.423 220.668,192.431 220.455,194.734 221.453 C 196.724 222.315,230.209 222.673,231.195 221.842 C 233.155 220.190,234.529 220.147,238.600 221.615 C 242.016 222.847,279.403 222.664,280.790 221.409 C 281.538 220.732,281.600 220.193,281.600 214.400 C 281.600 206.022,280.300 206.800,294.309 206.800 C 308.045 206.800,306.800 206.039,306.800 214.435 C 306.800 219.692,306.882 220.397,307.602 221.312 L 308.405 222.332 315.434 222.326 L 322.463 222.320 323.822 221.127 L 325.180 219.934 325.290 213.467 L 325.400 207.000 334.350 206.892 C 344.023 206.776,344.169 206.805,344.616 208.928 C 344.764 209.627,345.129 210.740,345.428 211.400 C 345.727 212.060,346.144 213.320,346.353 214.200 C 347.943 220.865,349.316 222.370,353.825 222.387 C 357.453 222.402,358.832 221.547,359.380 218.946 C 359.848 216.720,362.144 216.716,364.514 218.936 C 368.364 222.543,377.758 223.010,380.710 219.740 L 381.620 218.733 383.033 219.566 C 386.106 221.379,389.258 218.298,387.566 215.136 C 387.074 214.217,388.401 212.400,389.564 212.400 C 390.745 212.400,394.409 210.264,395.340 209.033 C 399.102 204.055,393.802 201.002,387.136 204.306 L 384.780 205.473 383.765 204.532 C 381.785 202.697,383.024 201.309,388.743 198.957 C 391.653 197.759,392.702 193.824,390.547 192.191 C 389.258 191.215,384.784 191.435,382.237 192.600 C 379.478 193.862,379.516 193.866,378.088 192.239 C 376.753 190.718,375.610 190.000,374.526 190.000 C 373.790 190.000,371.600 192.391,371.600 193.195 C 371.600 193.436,370.467 194.142,369.081 194.764 C 365.882 196.199,360.544 201.727,360.167 203.995 C 359.227 209.652,356.670 211.771,354.902 208.361 C 354.389 207.372,357.008 204.220,358.967 203.468 C 359.611 203.221,359.658 202.503,359.534 194.699 L 359.400 186.200 358.200 184.691 C 357.540 183.860,356.296 182.690,355.434 182.091 L 353.869 181.000 335.567 181.000 L 317.265 181.000 316.307 181.900 C 315.780 182.395,314.997 182.800,314.568 182.800 C 314.139 182.800,313.071 182.395,312.194 181.900 C 310.624 181.013,310.356 180.998,294.247 180.879 L 277.894 180.758 275.791 181.823 C 274.076 182.690,273.494 183.268,272.643 184.949 L 271.600 187.011 271.600 199.116 L 271.600 211.220 270.532 211.626 C 268.687 212.327,244.858 211.939,244.391 211.200 C 244.172 210.853,244.010 204.767,244.006 196.744 C 243.999 180.046,244.286 181.000,239.269 181.000 C 236.477 181.000,235.941 181.118,235.085 181.921 L 234.104 182.842 232.352 181.921 L 230.600 181.000 213.000 181.082 C 191.238 181.183,195.409 181.186,174.197 181.050 C 164.296 180.987,155.926 181.006,155.597 181.093 M73.083 181.480 C 71.212 181.963,70.111 182.853,71.800 182.518 C 72.680 182.343,81.725 182.200,91.900 182.200 C 102.075 182.200,110.400 182.065,110.400 181.900 C 110.400 181.735,102.405 181.600,92.633 181.600 C 82.861 181.600,74.626 181.531,74.333 181.448 C 74.040 181.364,73.477 181.378,73.083 181.480 M111.900 182.689 C 112.615 182.778,113.785 182.778,114.500 182.689 C 115.215 182.601,114.630 182.528,113.200 182.528 C 111.770 182.528,111.185 182.601,111.900 182.689 M68.964 183.800 C 68.686 184.909,68.361 185.006,67.074 184.364 C 66.498 184.077,66.609 184.271,67.400 184.932 L 68.600 185.935 68.954 184.867 C 69.148 184.280,69.485 183.575,69.703 183.300 C 69.969 182.963,69.954 182.800,69.657 182.800 C 69.414 182.800,69.102 183.250,68.964 183.800 M116.930 183.832 C 117.409 184.399,118.610 185.731,119.600 186.791 C 120.590 187.851,122.255 189.645,123.300 190.777 C 124.345 191.910,125.200 192.699,125.200 192.532 C 125.200 192.365,124.837 191.862,124.394 191.414 C 121.364 188.354,117.584 184.087,117.385 183.500 C 117.253 183.115,116.902 182.800,116.603 182.800 C 116.231 182.800,116.333 183.124,116.930 183.832 M191.979 183.389 C 192.981 183.907,193.387 183.907,195.378 183.389 C 197.179 182.920,200.764 182.800,212.989 182.800 C 229.572 182.800,231.928 183.020,233.008 184.668 C 233.796 185.871,234.618 185.850,235.432 184.607 C 236.184 183.460,238.372 182.734,240.061 183.072 C 242.366 183.533,242.400 183.746,242.400 197.909 C 242.400 211.457,242.548 212.711,244.218 213.352 C 245.520 213.851,271.360 213.606,272.035 213.087 C 273.508 211.956,273.600 211.087,273.600 198.271 C 273.600 181.296,271.649 182.815,293.469 182.806 C 310.390 182.799,311.465 182.928,314.026 185.269 C 314.957 186.119,315.750 186.767,315.788 186.708 C 315.827 186.648,316.120 185.887,316.440 185.016 C 317.239 182.838,316.836 182.885,335.069 182.840 C 353.184 182.795,354.535 182.937,356.424 185.088 L 357.600 186.428 357.600 194.183 L 357.600 201.938 356.369 203.169 C 355.692 203.846,354.970 204.400,354.763 204.400 C 353.176 204.400,352.765 208.577,354.142 210.725 C 355.825 213.352,360.366 210.952,361.018 207.091 C 361.961 201.513,371.600 192.442,371.600 197.134 C 371.600 197.551,371.935 198.321,372.345 198.846 C 372.755 199.371,373.229 200.250,373.400 200.800 C 373.571 201.350,374.045 202.229,374.455 202.754 C 374.865 203.279,375.200 204.053,375.200 204.475 C 375.200 204.896,375.536 205.907,375.948 206.721 C 377.772 210.331,378.402 211.859,378.401 212.669 C 378.400 213.147,378.850 214.073,379.400 214.727 C 381.912 217.712,379.872 219.751,373.866 220.258 C 371.283 220.477,370.664 220.399,369.496 219.710 C 368.747 219.268,367.475 218.689,366.667 218.422 C 365.860 218.156,365.200 217.784,365.200 217.596 C 365.200 214.623,358.191 215.590,357.418 218.669 C 357.035 220.198,356.612 220.387,353.562 220.394 C 349.868 220.402,350.075 220.692,347.333 211.673 C 346.696 209.578,345.740 207.392,345.148 206.678 L 344.096 205.410 334.463 205.405 C 322.389 205.399,323.431 204.684,323.311 213.060 C 323.201 220.674,323.283 220.530,319.227 220.248 C 315.478 219.987,315.620 219.987,312.081 220.250 C 307.904 220.561,308.000 220.726,308.000 213.227 C 308.000 204.531,309.501 205.400,294.474 205.400 C 279.087 205.400,280.536 204.625,280.342 212.962 C 280.147 221.344,282.814 220.400,259.338 220.400 C 238.694 220.400,237.839 220.335,236.451 218.662 C 235.615 217.654,234.056 217.868,232.539 219.200 C 231.401 220.199,230.823 220.402,229.086 220.413 C 227.939 220.421,220.075 220.415,211.611 220.400 L 196.221 220.374 194.135 219.387 C 191.577 218.177,191.296 218.171,190.094 219.300 L 189.136 220.200 170.723 220.312 C 149.907 220.438,151.200 220.645,151.200 217.180 C 151.200 213.383,150.220 213.600,167.369 213.600 C 185.925 213.600,185.874 213.615,185.213 208.490 C 184.792 205.226,185.813 205.424,168.241 205.200 C 155.731 205.041,152.386 204.888,151.861 204.451 C 151.283 203.971,151.200 202.786,151.200 194.977 C 151.200 184.549,151.265 184.270,153.879 183.471 C 156.740 182.596,190.305 182.524,191.979 183.389 M14.967 184.605 C 15.927 185.494,16.109 186.675,15.415 187.502 C 15.177 187.786,12.708 186.222,12.501 185.656 C 12.369 185.295,12.022 184.856,11.730 184.680 C 10.785 184.110,11.168 183.600,12.542 183.600 C 13.420 183.600,14.258 183.947,14.967 184.605 M135.768 186.661 C 129.438 193.931,128.672 194.704,127.590 194.906 L 126.600 195.091 127.628 195.146 C 128.243 195.178,128.975 194.839,129.451 194.300 C 129.889 193.805,131.406 192.128,132.823 190.573 C 137.145 185.832,138.355 184.400,138.039 184.400 C 137.873 184.400,136.851 185.417,135.768 186.661 M143.662 189.900 C 142.317 191.385,140.919 193.050,140.557 193.600 C 140.196 194.150,140.545 193.880,141.333 193.000 C 142.122 192.120,143.459 190.680,144.304 189.800 C 145.836 188.205,146.599 187.200,146.278 187.200 C 146.185 187.200,145.008 188.415,143.662 189.900 M110.567 189.945 C 109.754 190.604,109.768 190.618,111.244 190.618 C 112.074 190.618,112.562 190.500,112.329 190.356 C 112.096 190.212,111.791 189.910,111.652 189.684 C 111.491 189.424,111.092 189.520,110.567 189.945 M159.767 189.943 C 158.278 190.221,158.000 190.822,158.006 193.749 C 158.016 198.550,157.682 198.455,174.200 198.350 C 183.899 198.289,187.511 198.401,189.108 198.812 C 192.135 199.592,192.521 199.112,192.500 194.584 C 192.489 192.207,192.313 190.946,191.942 190.586 C 191.434 190.092,162.110 189.506,159.767 189.943 M200.451 190.749 C 199.551 191.649,198.768 209.266,199.539 211.260 C 200.428 213.556,200.693 213.600,213.660 213.600 L 225.542 213.600 226.371 212.546 C 227.632 210.943,227.658 192.058,226.400 190.800 C 225.198 189.598,201.647 189.553,200.451 190.749 M281.002 190.941 C 280.206 192.156,280.016 196.576,280.729 197.289 C 281.444 198.004,286.422 198.332,297.100 198.368 C 308.365 198.407,308.185 198.480,307.930 193.965 C 307.704 189.970,308.577 190.217,294.200 190.084 L 281.640 189.968 281.002 190.941 M324.088 190.500 C 323.175 191.615,323.066 196.146,323.927 197.210 L 324.728 198.200 334.617 198.332 C 344.280 198.461,349.129 198.089,350.282 197.132 C 351.469 196.147,351.386 191.843,350.156 190.613 C 349.331 189.788,324.759 189.682,324.088 190.500 M58.667 191.400 C 58.850 191.840,59.090 198.536,59.200 206.281 C 59.431 222.533,59.082 221.334,63.639 221.541 C 67.002 221.694,68.400 221.139,68.400 219.649 C 68.400 219.192,68.569 219.263,69.023 219.911 C 69.365 220.400,69.815 220.800,70.023 220.800 C 70.230 220.800,70.040 220.440,69.600 220.000 C 69.160 219.560,68.791 218.975,68.781 218.700 C 68.770 218.425,68.454 218.830,68.078 219.600 L 67.395 221.000 64.314 221.117 C 59.302 221.306,59.600 222.270,59.600 205.876 C 59.600 193.957,59.517 192.051,58.967 191.376 C 58.344 190.611,58.340 190.612,58.667 191.400 M76.970 194.000 L 77.000 197.000 90.000 197.214 C 97.150 197.332,103.045 197.467,103.100 197.514 C 103.155 197.561,103.214 197.915,103.232 198.300 C 103.251 198.740,103.340 198.809,103.469 198.487 C 104.102 196.912,103.207 196.800,89.969 196.800 L 77.235 196.800 77.087 193.900 L 76.939 191.000 76.970 194.000 M113.276 191.566 C 113.368 191.877,113.884 192.406,114.422 192.741 C 115.180 193.214,115.265 193.221,114.800 192.775 C 114.470 192.459,113.954 191.930,113.654 191.600 C 113.215 191.117,113.141 191.110,113.276 191.566 M189.736 192.121 C 191.028 192.968,191.697 194.476,191.365 195.795 L 191.130 196.735 175.777 196.751 C 158.624 196.769,159.200 196.865,159.200 193.986 C 159.200 192.221,160.205 191.364,161.804 191.765 C 162.316 191.894,163.154 191.825,163.667 191.613 C 165.524 190.847,188.475 191.294,189.736 192.121 M225.067 191.732 C 225.463 192.127,225.758 208.815,225.403 210.717 L 225.157 212.034 213.564 211.917 C 203.782 211.818,201.911 211.706,201.591 211.200 C 201.170 210.533,201.053 194.435,201.454 192.428 L 201.709 191.156 213.222 191.278 C 219.554 191.345,224.884 191.550,225.067 191.732 M305.855 192.468 C 306.511 193.650,306.545 195.695,305.920 196.320 C 304.911 197.329,283.386 196.967,282.416 195.925 C 281.351 194.782,281.386 193.916,282.551 192.531 L 283.502 191.400 294.420 191.468 L 305.338 191.537 305.855 192.468 M337.758 191.606 C 342.575 191.589,346.666 191.483,346.849 191.369 C 347.629 190.888,349.600 192.938,349.600 194.230 C 349.600 196.680,348.257 196.936,336.547 196.718 C 325.401 196.511,325.200 196.464,325.200 194.083 C 325.200 192.131,326.227 191.063,327.791 191.387 C 328.456 191.525,332.941 191.623,337.758 191.606 M13.934 193.546 C 14.160 195.144,13.447 195.380,11.435 194.374 C 8.813 193.065,9.099 192.371,12.200 192.522 C 13.551 192.588,13.821 192.747,13.934 193.546 M377.031 193.805 C 378.414 195.619,379.498 195.870,381.440 194.830 C 382.291 194.373,383.261 193.999,383.594 193.998 C 383.927 193.996,384.716 193.726,385.346 193.398 C 387.729 192.155,389.560 192.974,389.587 195.295 C 389.602 196.540,388.018 197.715,384.603 198.993 C 383.505 199.404,382.108 200.206,381.499 200.776 L 380.390 201.812 381.067 203.606 C 382.406 207.152,383.955 207.636,387.937 205.753 C 390.471 204.554,393.826 204.280,394.423 205.223 C 395.558 207.018,393.582 209.453,390.229 210.392 C 386.942 211.312,385.527 213.041,385.845 215.747 C 386.067 217.633,386.002 218.024,385.430 218.244 C 384.674 218.534,382.400 216.629,382.400 215.704 C 382.400 215.404,382.049 214.493,381.619 213.679 C 380.613 211.775,379.200 208.623,379.200 208.286 C 379.200 208.142,378.750 207.040,378.200 205.837 C 377.650 204.635,377.200 203.555,377.200 203.437 C 377.200 203.320,376.750 202.240,376.200 201.037 C 375.650 199.835,375.200 198.643,375.200 198.387 C 375.200 198.132,374.813 197.380,374.340 196.716 C 372.027 193.467,374.627 190.654,377.031 193.805 M48.145 193.684 C 48.649 194.485,37.046 206.410,36.399 205.755 C 36.206 205.560,36.026 203.780,35.998 201.800 C 35.865 192.364,35.590 192.731,42.669 192.888 C 46.916 192.982,47.783 193.108,48.145 193.684 M115.200 193.773 C 115.200 193.872,115.965 194.750,116.900 195.725 C 117.835 196.699,119.473 198.465,120.539 199.648 C 122.707 202.053,121.658 200.566,118.600 196.899 C 116.818 194.761,115.200 193.274,115.200 193.773 M136.373 198.029 C 135.178 199.366,134.052 200.761,133.872 201.129 C 133.691 201.498,134.024 201.260,134.612 200.600 C 135.200 199.940,136.475 198.545,137.445 197.500 C 138.416 196.455,139.061 195.600,138.878 195.600 C 138.696 195.600,137.568 196.693,136.373 198.029 M15.600 197.933 C 15.600 199.767,15.342 200.104,14.347 199.572 C 13.415 199.073,13.395 198.249,14.289 197.205 C 15.291 196.035,15.600 196.207,15.600 197.933 M14.336 202.552 C 14.508 203.460,13.775 203.986,12.324 203.994 C 10.935 204.002,10.681 203.548,11.455 202.442 C 12.227 201.340,14.120 201.412,14.336 202.552 M121.695 202.266 C 121.418 202.378,120.988 202.859,120.741 203.335 C 120.320 204.145,120.359 204.138,121.346 203.230 C 121.926 202.697,122.400 202.202,122.400 202.130 C 122.400 201.984,122.393 201.985,121.695 202.266 M133.862 202.441 C 134.326 203.322,136.053 205.273,137.010 206.000 C 137.759 206.569,137.769 206.559,137.200 205.823 C 136.118 204.422,133.515 201.785,133.862 202.441 M103.090 205.179 C 102.883 205.968,102.549 205.992,89.939 206.100 L 77.000 206.211 90.073 206.306 C 102.994 206.399,103.149 206.390,103.410 205.570 C 103.554 205.113,103.589 204.656,103.487 204.554 C 103.385 204.452,103.206 204.733,103.090 205.179 M117.800 206.635 C 116.700 207.861,115.215 209.513,114.500 210.305 C 113.785 211.097,113.200 211.917,113.200 212.128 C 113.200 212.338,113.695 211.895,114.300 211.142 C 114.905 210.390,115.760 209.407,116.200 208.957 C 118.550 206.555,120.406 204.400,120.122 204.402 C 119.945 204.404,118.900 205.408,117.800 206.635 M76.934 209.600 C 76.934 211.250,77.005 211.925,77.091 211.100 C 77.178 210.275,77.178 208.925,77.091 208.100 C 77.005 207.275,76.934 207.950,76.934 209.600 M139.275 208.588 C 140.200 209.571,141.028 210.306,141.114 210.220 C 141.317 210.016,138.293 206.802,137.896 206.801 C 137.729 206.800,138.350 207.605,139.275 208.588 M126.325 209.200 C 125.746 209.860,125.424 210.400,125.609 210.400 C 125.794 210.400,126.330 209.860,126.800 209.200 C 127.270 208.540,127.592 208.000,127.516 208.000 C 127.440 208.000,126.904 208.540,126.325 209.200 M17.713 209.546 C 18.219 210.560,18.209 210.792,17.631 211.558 C 16.758 212.716,13.256 213.812,12.953 213.023 C 12.704 212.373,14.956 209.120,15.927 208.728 C 17.006 208.292,17.112 208.341,17.713 209.546 M128.971 209.029 C 129.317 209.374,129.600 209.824,129.600 210.029 C 129.600 210.233,129.784 210.400,130.009 210.400 C 130.234 210.400,130.124 209.950,129.763 209.400 C 129.403 208.850,128.936 208.400,128.725 208.400 C 128.515 208.400,128.626 208.683,128.971 209.029 M123.968 211.856 C 123.045 212.860,123.041 212.887,123.878 212.452 C 124.806 211.969,125.395 211.262,125.108 210.975 C 125.014 210.880,124.501 211.277,123.968 211.856 M142.641 212.392 C 143.471 213.267,144.225 213.908,144.317 213.816 C 144.525 213.609,141.832 210.800,141.426 210.800 C 141.265 210.800,141.811 211.516,142.641 212.392 M131.867 212.430 C 132.344 212.964,133.646 214.390,134.760 215.600 C 135.873 216.810,136.788 217.929,136.792 218.086 C 136.796 218.243,137.205 218.582,137.700 218.838 C 138.554 219.280,138.547 219.244,137.577 218.152 C 137.015 217.518,135.597 215.920,134.426 214.600 C 133.255 213.280,132.005 212.034,131.648 211.830 C 131.244 211.599,131.326 211.825,131.867 212.430 M110.157 213.280 C 110.607 213.532,111.189 213.548,111.693 213.324 C 112.362 213.025,112.234 212.954,110.969 212.918 C 109.733 212.883,109.574 212.954,110.157 213.280 M22.212 215.100 C 21.715 217.092,20.309 218.182,19.834 216.944 C 19.456 215.959,19.961 214.792,20.935 214.399 C 22.325 213.839,22.503 213.936,22.212 215.100 M118.705 217.695 L 116.086 220.600 113.343 220.862 L 110.600 221.125 113.508 221.049 L 116.417 220.973 117.908 219.215 C 118.729 218.249,119.920 216.945,120.555 216.317 C 121.190 215.690,121.623 215.090,121.517 214.983 C 121.410 214.877,120.145 216.097,118.705 217.695 M82.700 221.500 C 87.815 221.563,96.185 221.563,101.300 221.500 C 106.415 221.436,102.230 221.385,92.000 221.385 C 81.770 221.385,77.585 221.436,82.700 221.500 " stroke="none" fill="#f6ec9a" fill-rule="evenodd"></path><path id="path4" d="M39.400 182.000 C 31.920 182.125,25.751 182.266,25.690 182.313 C 24.690 183.102,24.236 219.438,25.211 220.613 C 25.831 221.360,30.962 221.410,32.400 220.683 L 33.400 220.177 33.600 205.588 L 33.800 191.000 46.200 190.894 C 57.503 190.797,58.644 190.848,59.100 191.470 C 59.477 191.985,59.600 195.528,59.600 205.876 C 59.600 222.270,59.302 221.306,64.314 221.117 C 67.394 221.000,67.396 220.999,68.045 219.620 C 68.653 218.330,68.714 218.297,68.975 219.121 C 69.554 220.945,70.015 220.992,88.400 221.133 C 97.970 221.206,108.050 221.142,110.800 220.990 L 115.800 220.714 117.600 218.832 C 119.952 216.373,122.922 213.118,125.352 210.336 C 127.556 207.812,128.233 207.723,130.100 209.712 C 130.705 210.357,131.200 210.962,131.200 211.056 C 131.200 211.150,131.807 211.833,132.548 212.575 C 133.289 213.316,135.020 215.245,136.393 216.861 C 139.854 220.933,139.595 220.800,144.044 220.800 C 149.377 220.800,150.288 220.316,148.300 218.541 C 147.392 217.731,146.191 216.412,141.800 211.408 C 140.480 209.904,138.348 207.576,137.062 206.236 C 132.791 201.786,132.794 201.833,136.602 197.813 C 138.031 196.305,139.200 195.018,139.200 194.953 C 139.200 194.889,139.605 194.410,140.100 193.889 C 140.595 193.368,142.170 191.615,143.600 189.994 C 145.030 188.372,146.877 186.337,147.704 185.470 C 149.804 183.271,149.149 182.830,143.756 182.813 L 139.712 182.800 137.556 185.279 C 136.370 186.643,134.241 189.028,132.823 190.579 C 131.406 192.131,129.889 193.805,129.451 194.300 C 128.684 195.169,126.800 195.562,126.800 194.854 C 126.800 194.663,125.554 193.178,124.031 191.554 C 119.171 186.369,117.588 184.620,117.021 183.802 C 116.185 182.597,112.503 182.343,92.800 182.130 C 71.193 181.896,69.870 182.052,68.940 184.940 L 68.574 186.079 66.987 184.500 C 64.324 181.849,61.859 181.626,39.400 182.000 M63.244 183.444 C 64.787 183.659,65.134 183.906,66.104 185.476 L 67.209 187.264 67.104 203.732 L 67.000 220.200 64.236 220.320 C 60.585 220.478,60.814 221.444,60.801 205.800 C 60.787 190.103,60.846 190.551,58.735 189.982 C 56.909 189.491,36.671 189.533,34.454 190.033 C 31.965 190.594,32.000 190.371,32.000 205.596 C 32.000 221.832,32.281 221.000,27.100 220.143 L 25.600 219.895 25.600 201.968 C 25.600 185.315,25.650 184.011,26.300 183.632 C 27.065 183.187,60.185 183.019,63.244 183.444 M110.909 183.459 C 114.473 183.677,115.274 183.851,115.974 184.559 C 117.641 186.244,124.229 193.184,125.300 194.383 C 125.905 195.060,126.400 195.791,126.400 196.007 C 126.400 197.044,129.121 196.379,130.109 195.100 C 130.662 194.385,132.438 192.416,134.057 190.724 C 135.676 189.033,137.792 186.738,138.760 185.624 L 140.520 183.600 143.836 183.600 C 146.869 183.600,148.460 184.095,147.102 184.616 C 146.800 184.732,145.406 186.216,144.004 187.913 C 142.603 189.611,141.263 191.180,141.028 191.400 C 140.793 191.620,139.994 192.520,139.254 193.400 C 138.514 194.280,136.886 196.080,135.637 197.400 C 131.542 201.727,131.522 201.983,135.000 205.482 C 137.337 207.833,140.398 211.185,142.000 213.147 C 143.697 215.226,145.288 217.050,146.612 218.433 C 147.935 219.817,147.616 220.000,143.879 220.000 L 140.691 220.000 139.045 218.124 C 138.140 217.091,136.500 215.326,135.400 214.199 C 134.300 213.073,132.410 211.061,131.200 209.730 C 127.619 205.788,127.524 205.782,124.850 209.300 C 123.889 210.565,122.945 211.600,122.751 211.600 C 122.558 211.600,122.400 211.787,122.400 212.016 C 122.400 212.372,120.321 214.645,116.153 218.843 C 115.241 219.762,114.687 219.917,111.498 220.143 C 106.057 220.529,74.027 220.434,72.270 220.026 C 69.540 219.392,69.627 219.986,69.613 201.789 C 69.599 183.636,69.576 183.803,72.105 183.489 C 74.336 183.212,106.462 183.187,110.909 183.459 M110.260 188.836 C 109.682 189.661,109.470 189.672,94.443 189.619 C 74.981 189.551,75.618 189.389,75.605 194.411 C 75.595 198.608,74.867 198.400,89.605 198.400 L 102.364 198.400 102.611 199.718 C 102.747 200.442,102.800 201.747,102.729 202.618 L 102.600 204.200 89.717 204.400 C 74.535 204.636,75.511 204.299,75.690 209.239 C 75.862 213.983,74.319 213.600,93.246 213.600 C 109.160 213.600,109.606 213.621,110.093 214.400 C 110.869 215.642,111.532 215.380,113.890 212.900 C 115.092 211.635,117.191 209.430,118.554 208.000 C 123.695 202.607,124.166 201.447,122.100 199.267 C 121.495 198.628,119.470 196.442,117.600 194.410 C 110.901 187.128,111.263 187.403,110.260 188.836 M119.695 198.250 C 122.984 202.161,123.264 201.415,115.300 209.972 C 114.365 210.976,113.600 211.929,113.600 212.089 C 113.600 212.682,111.129 213.659,110.464 213.329 C 110.099 213.148,102.420 212.910,93.400 212.800 L 77.000 212.600 76.878 210.217 C 76.810 208.906,76.859 207.421,76.985 206.917 L 77.215 206.000 90.018 206.000 L 102.820 206.000 103.244 204.900 C 103.713 203.681,103.575 198.242,103.061 197.727 C 102.881 197.547,96.944 197.310,89.867 197.200 L 77.000 197.000 77.000 194.000 L 77.000 191.000 93.486 190.800 C 108.210 190.621,110.044 190.528,110.642 189.930 C 111.392 189.180,114.363 191.910,119.695 198.250 " stroke="none" fill="#7c7c7c" fill-rule="evenodd"></path></g></svg>